<?xml version="1.0" standalone="no"?>
<!DOCTYPE svg PUBLIC "-//W3C//DTD SVG 20010904//EN"
 "http://www.w3.org/TR/2001/REC-SVG-20010904/DTD/svg10.dtd">
<svg version="1.0" xmlns="http://www.w3.org/2000/svg"
 width="128.000000pt" height="128.000000pt" viewBox="0 0 128.000000 128.000000"
 preserveAspectRatio="xMidYMid meet">
<metadata>
Created by potrace 1.11, written by Peter Selinger 2001-2013
</metadata>
<g transform="translate(0.000000,128.000000) scale(0.100000,-0.100000)"
fill="#000000" stroke="none">
<path d="M744 1240 c-28 -6 -80 -34 -123 -65 -51 -36 -153 -155 -167 -195 -9
-25 -31 -81 -50 -125 -49 -118 -75 -194 -84 -245 -4 -25 -22 -99 -40 -165 -29
-109 -31 -125 -21 -169 13 -57 3 -76 -45 -82 -65 -8 -82 -13 -111 -28 -42 -21
-103 -80 -103 -99 0 -15 27 -25 90 -34 19 -3 53 -8 75 -12 59 -11 160 10 330
67 83 28 180 53 215 57 36 3 80 8 98 11 47 6 211 54 245 71 15 8 47 16 70 18
107 11 148 18 153 27 6 9 -41 88 -73 123 -31 33 -62 89 -67 121 -12 64 -17
112 -21 189 -11 205 -14 239 -26 293 -23 107 -119 200 -248 241 -38 12 -52 12
-97 1z"/>
</g>
</svg>
